# xmcd CD database file
#
# Track frame offsets:
#	150
#	10721
#	23437
#	35882
#	45592
#	59821
#	73942
#	84601
#	98131
#	109803
#	127338
#	139119
#	156878
#	170227
#	182151
#	194237
#
# Disc length: 2765 seconds
#
# Revision: 0
# Processed by: cddbd v1.5.2PL0 Copyright (c) Steve Scherf et al.
# Submitted via: CDex 1.51
#
DISCID=f30acb10
DTITLE=nova - nova danse 1950
DYEAR=2014
DGENRE=Jazz
TTITLE0=etta james - good rockin' daddy
TTITLE1=bienvenido granda - todo el mundo escucha
TTITLE2=the ravens - the calypso song
TTITLE3=richard berry and the pharaohs - louie, louie
TTITLE4=jamelão - exaltação a manguiera
TTITLE5=zutty singleton - drum face
TTITLE6=chuck berry - roll over beethoven
TTITLE7=franco and le tout puissant ok jazz - la rumba o.k.
TTITLE8=the regals - got the water boiling
TTITLE9=mohammed el bakkar - africa
TTITLE10=terry timmons - got nobody to love
TTITLE11=art blakey percussion ensemble - cubano chant
TTITLE12=lord comoser and the silver seas hotel orchestra - hill and gully ride  - mandeville rd
TTITLE13=hank ballard and the midnighters - teardrops on your letter
TTITLE14=lloyd nolan - i don't know about you
TTITLE15=bebo valdes - la rumba me llama
EXTD=YEAR: 2014
EXTT0=
EXTT1=
EXTT2=
EXTT3=
EXTT4=
EXTT5=
EXTT6=
EXTT7=
EXTT8=
EXTT9=
EXTT10=
EXTT11=
EXTT12=
EXTT13=
EXTT14=
EXTT15=
PLAYORDER=
